<svg width="1512" height="5440" viewBox="0 0 1512 5440" fill="none" xmlns="http://www.w3.org/2000/svg">
<g clip-path="url(#clip0_307_224)">
<rect width="1512" height="5440" fill="#101010"/>
<g opacity="0.4" filter="url(#filter0_f_307_224)">
<circle cx="524" cy="44" r="255" fill="#3E00FF"/>
</g>
<g opacity="0.8" filter="url(#filter1_f_307_224)">
<circle cx="1257" cy="620" r="255" fill="#9747FF"/>
</g>
<g opacity="0.1">
<circle cx="1202.5" cy="223.5" r="15.1" stroke="white" stroke-width="2"/>
<circle cx="1202.5" cy="223.5" r="25.1667" stroke="white" stroke-width="2"/>
<circle cx="1202.5" cy="223.5" r="35.2333" stroke="white" stroke-width="2"/>
<circle cx="1202.5" cy="223.5" r="45.3" stroke="white" stroke-width="2"/>
<circle cx="1202.5" cy="223.5" r="55.3667" stroke="white" stroke-width="2"/>
<circle cx="1202.5" cy="223.5" r="65.4333" stroke="white" stroke-width="2"/>
<circle cx="1202.5" cy="223.5" r="75.5" stroke="white" stroke-width="2"/>
</g>
<g opacity="0.05">
<circle cx="308.5" cy="650.5" r="30.7" stroke="white" stroke-width="2"/>
<circle cx="308.5" cy="650.5" r="51.1667" stroke="white" stroke-width="2"/>
<circle cx="308.5" cy="650.5" r="71.6333" stroke="white" stroke-width="2"/>
<circle cx="308.5" cy="650.5" r="92.1" stroke="white" stroke-width="2"/>
<circle cx="308.5" cy="650.5" r="112.567" stroke="white" stroke-width="2"/>
<circle cx="308.5" cy="650.5" r="133.033" stroke="white" stroke-width="2"/>
<circle cx="308.5" cy="650.5" r="153.5" stroke="white" stroke-width="2"/>
</g>
<path d="M259 618L266.741 615.741L269 608L271.259 615.741L279 618L271.259 620.259L269 628L266.741 620.259L259 618Z" fill="url(#paint0_linear_307_224)"/>
<path d="M1244 277L1257.93 272.934L1262 259L1266.07 272.934L1280 277L1266.07 281.066L1262 295L1257.93 281.066L1244 277Z" fill="url(#paint1_linear_307_224)"/>
<g opacity="0.1" filter="url(#filter2_f_307_224)">
<circle cx="8" cy="1614" r="623" fill="#F97316"/>
</g>
<g opacity="0.1" filter="url(#filter3_f_307_224)">
<circle cx="753" cy="1946" r="113" fill="#EAED69"/>
</g>
<g filter="url(#filter4_d_307_224)">
<path d="M743 1946L750.741 1943.74L753 1936L755.259 1943.74L763 1946L755.259 1948.26L753 1956L750.741 1948.26L743 1946Z" fill="url(#paint2_linear_307_224)" shape-rendering="crispEdges"/>
</g>
<line opacity="0.2" x1="753.5" y1="1900" x2="753.5" y2="2217" stroke="url(#paint3_linear_307_224)"/>
<g opacity="0.1" filter="url(#filter5_f_307_224)">
<circle cx="991" cy="3764" r="623" fill="#3E00FF"/>
</g>
</g>
<defs>
<filter id="filter0_f_307_224" x="-331" y="-811" width="1710" height="1710" filterUnits="userSpaceOnUse" color-interpolation-filters="sRGB">
<feFlood flood-opacity="0" result="BackgroundImageFix"/>
<feBlend mode="normal" in="SourceGraphic" in2="BackgroundImageFix" result="shape"/>
<feGaussianBlur stdDeviation="300" result="effect1_foregroundBlur_307_224"/>
</filter>
<filter id="filter1_f_307_224" x="402" y="-235" width="1710" height="1710" filterUnits="userSpaceOnUse" color-interpolation-filters="sRGB">
<feFlood flood-opacity="0" result="BackgroundImageFix"/>
<feBlend mode="normal" in="SourceGraphic" in2="BackgroundImageFix" result="shape"/>
<feGaussianBlur stdDeviation="300" result="effect1_foregroundBlur_307_224"/>
</filter>
<filter id="filter2_f_307_224" x="-1415" y="191" width="2846" height="2846" filterUnits="userSpaceOnUse" color-interpolation-filters="sRGB">
<feFlood flood-opacity="0" result="BackgroundImageFix"/>
<feBlend mode="normal" in="SourceGraphic" in2="BackgroundImageFix" result="shape"/>
<feGaussianBlur stdDeviation="400" result="effect1_foregroundBlur_307_224"/>
</filter>
<filter id="filter3_f_307_224" x="440" y="1633" width="626" height="626" filterUnits="userSpaceOnUse" color-interpolation-filters="sRGB">
<feFlood flood-opacity="0" result="BackgroundImageFix"/>
<feBlend mode="normal" in="SourceGraphic" in2="BackgroundImageFix" result="shape"/>
<feGaussianBlur stdDeviation="100" result="effect1_foregroundBlur_307_224"/>
</filter>
<filter id="filter4_d_307_224" x="735" y="1928" width="36" height="36" filterUnits="userSpaceOnUse" color-interpolation-filters="sRGB">
<feFlood flood-opacity="0" result="BackgroundImageFix"/>
<feColorMatrix in="SourceAlpha" type="matrix" values="0 0 0 0 0 0 0 0 0 0 0 0 0 0 0 0 0 0 127 0" result="hardAlpha"/>
<feOffset/>
<feGaussianBlur stdDeviation="4"/>
<feComposite in2="hardAlpha" operator="out"/>
<feColorMatrix type="matrix" values="0 0 0 0 0.918791 0 0 0 0 0.929167 0 0 0 0 0.410382 0 0 0 0.16 0"/>
<feBlend mode="normal" in2="BackgroundImageFix" result="effect1_dropShadow_307_224"/>
<feBlend mode="normal" in="SourceGraphic" in2="effect1_dropShadow_307_224" result="shape"/>
</filter>
<filter id="filter5_f_307_224" x="-432" y="2341" width="2846" height="2846" filterUnits="userSpaceOnUse" color-interpolation-filters="sRGB">
<feFlood flood-opacity="0" result="BackgroundImageFix"/>
<feBlend mode="normal" in="SourceGraphic" in2="BackgroundImageFix" result="shape"/>
<feGaussianBlur stdDeviation="400" result="effect1_foregroundBlur_307_224"/>
</filter>
<linearGradient id="paint0_linear_307_224" x1="264" y1="613" x2="274" y2="623" gradientUnits="userSpaceOnUse">
<stop stop-color="white"/>
<stop offset="1" stop-color="white" stop-opacity="0.7"/>
</linearGradient>
<linearGradient id="paint1_linear_307_224" x1="1253" y1="268" x2="1271" y2="286" gradientUnits="userSpaceOnUse">
<stop stop-color="white"/>
<stop offset="1" stop-color="white" stop-opacity="0.7"/>
</linearGradient>
<linearGradient id="paint2_linear_307_224" x1="748" y1="1941" x2="758" y2="1951" gradientUnits="userSpaceOnUse">
<stop stop-color="white"/>
<stop offset="1" stop-color="white" stop-opacity="0.7"/>
</linearGradient>
<linearGradient id="paint3_linear_307_224" x1="753" y1="2300" x2="753" y2="1931.5" gradientUnits="userSpaceOnUse">
<stop stop-color="#EAED69"/>
<stop offset="1" stop-color="#EAED69" stop-opacity="0"/>
</linearGradient>
<clipPath id="clip0_307_224">
<rect width="1512" height="5440" fill="white"/>
</clipPath>
</defs>
</svg>
