<svg width="1512" height="1331" viewBox="0 0 1512 1331" fill="none" xmlns="http://www.w3.org/2000/svg">
<g clip-path="url(#clip0_1_2)">
<rect width="1512" height="1331" fill="#101010"/>
<g opacity="0.4" filter="url(#filter0_f_1_2)">
<circle cx="524" cy="44" r="255" fill="#3E00FF"/>
</g>
<g opacity="0.8" filter="url(#filter1_f_1_2)">
<circle cx="1257" cy="620" r="255" fill="#9747FF"/>
</g>
<g opacity="0.1">
<circle cx="1202.5" cy="223.5" r="15.1" stroke="white" stroke-width="2"/>
<circle cx="1202.5" cy="223.5" r="25.1667" stroke="white" stroke-width="2"/>
<circle cx="1202.5" cy="223.5" r="35.2333" stroke="white" stroke-width="2"/>
<circle cx="1202.5" cy="223.5" r="45.3" stroke="white" stroke-width="2"/>
<circle cx="1202.5" cy="223.5" r="55.3667" stroke="white" stroke-width="2"/>
<circle cx="1202.5" cy="223.5" r="65.4333" stroke="white" stroke-width="2"/>
<circle cx="1202.5" cy="223.5" r="75.5" stroke="white" stroke-width="2"/>
</g>
<g opacity="0.05">
<circle cx="308.5" cy="650.5" r="30.7" stroke="white" stroke-width="2"/>
<circle cx="308.5" cy="650.5" r="51.1667" stroke="white" stroke-width="2"/>
<circle cx="308.5" cy="650.5" r="71.6333" stroke="white" stroke-width="2"/>
<circle cx="308.5" cy="650.5" r="92.1" stroke="white" stroke-width="2"/>
<circle cx="308.5" cy="650.5" r="112.567" stroke="white" stroke-width="2"/>
<circle cx="308.5" cy="650.5" r="133.033" stroke="white" stroke-width="2"/>
<circle cx="308.5" cy="650.5" r="153.5" stroke="white" stroke-width="2"/>
</g>
<path d="M259 618L266.741 615.741L269 608L271.259 615.741L279 618L271.259 620.259L269 628L266.741 620.259L259 618Z" fill="url(#paint0_linear_1_2)"/>
<path d="M1244 277L1257.93 272.934L1262 259L1266.07 272.934L1280 277L1266.07 281.066L1262 295L1257.93 281.066L1244 277Z" fill="url(#paint1_linear_1_2)"/>
<g opacity="0.1" filter="url(#filter2_f_1_2)">
<circle cx="8" cy="1614" r="623" fill="#F97316"/>
</g>
<g opacity="0.1" filter="url(#filter3_f_1_2)">
<circle cx="991" cy="-345" r="623" fill="#3E00FF"/>
</g>
</g>
<defs>
<filter id="filter0_f_1_2" x="-331" y="-811" width="1710" height="1710" filterUnits="userSpaceOnUse" color-interpolation-filters="sRGB">
<feFlood flood-opacity="0" result="BackgroundImageFix"/>
<feBlend mode="normal" in="SourceGraphic" in2="BackgroundImageFix" result="shape"/>
<feGaussianBlur stdDeviation="300" result="effect1_foregroundBlur_1_2"/>
</filter>
<filter id="filter1_f_1_2" x="402" y="-235" width="1710" height="1710" filterUnits="userSpaceOnUse" color-interpolation-filters="sRGB">
<feFlood flood-opacity="0" result="BackgroundImageFix"/>
<feBlend mode="normal" in="SourceGraphic" in2="BackgroundImageFix" result="shape"/>
<feGaussianBlur stdDeviation="300" result="effect1_foregroundBlur_1_2"/>
</filter>
<filter id="filter2_f_1_2" x="-1415" y="191" width="2846" height="2846" filterUnits="userSpaceOnUse" color-interpolation-filters="sRGB">
<feFlood flood-opacity="0" result="BackgroundImageFix"/>
<feBlend mode="normal" in="SourceGraphic" in2="BackgroundImageFix" result="shape"/>
<feGaussianBlur stdDeviation="400" result="effect1_foregroundBlur_1_2"/>
</filter>
<filter id="filter3_f_1_2" x="-432" y="-1768" width="2846" height="2846" filterUnits="userSpaceOnUse" color-interpolation-filters="sRGB">
<feFlood flood-opacity="0" result="BackgroundImageFix"/>
<feBlend mode="normal" in="SourceGraphic" in2="BackgroundImageFix" result="shape"/>
<feGaussianBlur stdDeviation="400" result="effect1_foregroundBlur_1_2"/>
</filter>
<linearGradient id="paint0_linear_1_2" x1="264" y1="613" x2="274" y2="623" gradientUnits="userSpaceOnUse">
<stop stop-color="white"/>
<stop offset="1" stop-color="white" stop-opacity="0.7"/>
</linearGradient>
<linearGradient id="paint1_linear_1_2" x1="1253" y1="268" x2="1271" y2="286" gradientUnits="userSpaceOnUse">
<stop stop-color="white"/>
<stop offset="1" stop-color="white" stop-opacity="0.7"/>
</linearGradient>
<clipPath id="clip0_1_2">
<rect width="1512" height="1331" fill="white"/>
</clipPath>
</defs>
</svg>
