<svg width="1200" height="241" viewBox="0 0 1200 241" fill="none" xmlns="http://www.w3.org/2000/svg">
<g clip-path="url(#clip0_1_40)">
<rect width="1200" height="241" rx="16" fill="#292929"/>
<g opacity="0.1" filter="url(#filter0_f_1_40)">
<path d="M953.193 93.6605C976.012 139.648 1034.27 180.535 1060.55 195.23L1073.82 203.149L1285.82 -164.046C1285.46 -164.253 1285.35 -164.309 1283.35 -164.987C1280.81 -165.85 1248.53 -162.676 1182.29 -146.549C1116.05 -130.423 1074.86 -111.28 1028.32 -89.5029C991.094 -72.081 965.939 -35.8588 958.016 -19.9254C946.9 -1.22484 930.373 47.6732 953.193 93.6605Z" fill="#3E00FF"/>
<path d="M1291.74 -154.417C1289.99 -160.006 1287.32 -163.329 1285.82 -164.038L1073.83 203.138C1075.19 204.086 1082.1 206.864 1097.75 215.522C1117.33 226.344 1137.87 236.299 1176.33 247.529C1214.79 258.759 1249.22 250.48 1266.49 243.752C1283.76 237.023 1310.11 217.881 1329.12 184.957C1348.13 152.033 1349.11 123.013 1348.38 82.0348C1347.65 41.0571 1338.2 0.289454 1326.87 -46.3343C1315.54 -92.958 1293.92 -147.431 1291.74 -154.417Z" fill="#7359C7"/>
<path d="M1253.57 -81.077C1250.27 -90.6117 1246.68 -94.276 1245.29 -94.9163L1100.06 157.467L1121.94 170.103C1130.19 174.867 1164.59 192.344 1190.4 198.184C1216.22 204.024 1238.08 207.585 1262.58 188.346C1287.08 169.108 1291.78 146.063 1295.04 122.19C1298.29 98.3175 1291.18 58.4399 1285.02 24.3612C1278.86 -9.71739 1257.69 -69.1587 1253.57 -81.077Z" fill="#EAED69"/>
<path d="M1267.47 -159.842C1277.14 -165.323 1283.91 -165.15 1285.82 -164.046L1073.82 203.149C1070 200.941 1059.98 195.388 1043.8 180.324C1023.58 161.494 1020.12 135.173 1020 108.87C1019.87 82.5684 1041.42 41.1129 1057.47 14.1351C1073.52 -12.8427 1089.38 -27.0554 1118.48 -55.0858C1147.58 -83.1163 1202.8 -119.917 1215.71 -128.199C1228.63 -136.482 1255.38 -152.99 1267.47 -159.842Z" fill="#2901A4"/>
<rect x="1208.64" y="48.9411" width="24.8579" height="32.2165" rx="12.4289" transform="rotate(30 1208.64 48.9411)" fill="#2901A4"/>
<rect x="1179.73" y="99.0202" width="24.8579" height="32.2165" rx="12.4289" transform="rotate(30 1179.73 99.0202)" fill="#2901A4"/>
</g>
<g opacity="0.1">
<path d="M1064.97 165.706C1087.79 211.693 1146.05 252.58 1172.33 267.275L1185.6 275.195L1397.6 -92C1397.24 -92.2071 1397.13 -92.2637 1395.13 -92.9417C1392.59 -93.8043 1360.31 -90.6304 1294.07 -74.5038C1227.83 -58.3771 1186.64 -39.2348 1140.1 -17.4574C1102.87 -0.0354254 1077.72 36.1868 1069.79 52.1201C1058.68 70.8207 1042.15 119.719 1064.97 165.706Z" fill="#3E00FF"/>
<path d="M1403.51 -82.3716C1401.77 -87.9603 1399.1 -91.2839 1397.59 -91.9927L1185.6 275.184C1186.97 276.131 1193.88 278.91 1209.53 287.567C1229.1 298.389 1249.65 308.344 1288.11 319.574C1326.57 330.804 1360.99 322.526 1378.27 315.797C1395.54 309.068 1421.89 289.927 1440.9 257.002C1459.91 224.078 1460.88 195.058 1460.16 154.08C1459.43 113.103 1449.98 72.335 1438.65 25.7112C1427.32 -20.9125 1405.7 -75.3857 1403.51 -82.3716Z" fill="#7359C7"/>
<path d="M1379.25 -87.7963C1388.92 -93.2777 1395.68 -93.1048 1397.6 -92L1185.6 275.195C1181.77 272.986 1171.76 267.434 1155.58 252.37C1135.36 233.539 1131.9 207.218 1131.77 180.916C1131.65 154.614 1153.19 113.158 1169.25 86.1807C1185.3 59.2029 1201.16 44.9901 1230.26 16.9597C1259.36 -11.0708 1314.57 -47.8715 1327.49 -56.1539C1340.4 -64.4364 1367.16 -80.9447 1379.25 -87.7963Z" fill="#2901A4"/>
</g>
<g opacity="0.1" filter="url(#filter1_f_1_40)">
<path d="M248.62 402.356C301.466 405.689 368.035 374.732 394.714 358.837L408.63 351.07L189.966 -27.6676C189.596 -27.4539 189.491 -27.388 187.853 -25.9507C185.77 -24.1223 171.96 6.34576 152.204 73.8307C132.448 141.316 128.305 187.981 123.756 240.783C120.118 283.024 139.5 324.174 149.647 339.469C160.618 359.042 195.773 399.022 248.62 402.356Z" fill="#3E00FF"/>
<path d="M201.618 -27.9865C195.725 -29.3093 191.379 -28.6374 189.971 -27.6602L408.624 351.059C410.175 350.328 416.218 345.592 432.026 336.072C451.785 324.171 471.275 310.95 501.141 282.388C531.006 253.825 541.364 218.807 544.261 199.909C547.158 181.011 543.649 147.601 524.043 113.642C504.437 79.6823 479.018 63.8435 442.041 43.3586C405.063 22.8738 363.773 10.293 316.282 -3.63013C268.792 -17.5532 208.983 -26.3331 201.618 -27.9865Z" fill="#7359C7"/>
<path d="M247.444 43.9316C237.226 41.9599 232.1 43.2798 230.814 44.1862L381.355 304.076L403.929 291.043C412.441 286.128 445.793 264.413 464.32 244.37C482.847 224.327 497.304 206.634 492.755 174.826C488.206 143.017 470.043 126.94 450.399 111.718C430.755 96.4957 391.464 82.2858 357.848 70.2112C324.232 58.1367 260.216 46.3962 247.444 43.9316Z" fill="#EAED69"/>
<path d="M184.256 -9.10624C184.347 -20.5715 187.992 -26.5282 189.966 -27.6677L408.631 351.07C404.685 353.348 394.562 359.427 372.762 366.11C345.513 374.464 320.216 363.981 296.659 350.526C273.101 337.072 247.18 296.45 231.362 268.197C215.543 239.943 211.027 218.447 200.996 177.997C190.965 137.548 186.567 69.2507 185.829 53.4434C185.091 37.6361 184.142 5.22528 184.256 -9.10624Z" fill="#2901A4"/>
<rect x="340.412" y="151.116" width="25.6393" height="33.2293" rx="12.8197" transform="rotate(-30 340.412 151.116)" fill="#2901A4"/>
<rect x="394.463" y="159.269" width="25.6393" height="33.2293" rx="12.8197" transform="rotate(-30 394.463 159.269)" fill="#2901A4"/>
<rect x="370.234" y="202.769" width="25.6393" height="33.2293" rx="12.8197" transform="rotate(-30 370.234 202.769)" fill="#2901A4"/>
</g>
<g opacity="0.1" filter="url(#filter2_d_1_40)">
<path d="M109.023 467.89C161.869 471.223 228.438 440.266 255.117 424.371L269.033 416.604L50.3689 37.8664C49.9989 38.0801 49.8934 38.146 48.2561 39.5833C46.173 41.4117 32.3624 71.8798 12.6068 139.365C-7.14879 206.85 -11.2926 253.515 -15.8409 306.317C-19.4795 348.558 -0.0967317 389.708 10.0495 405.003C21.0212 424.576 56.1762 464.556 109.023 467.89Z" fill="#3E00FF"/>
<path d="M62.0204 37.5478C56.128 36.225 51.7816 36.8968 50.3732 37.874L269.027 416.593C270.577 415.862 276.621 411.126 292.429 401.606C312.188 389.706 331.678 376.484 361.543 347.922C391.409 319.359 401.766 284.342 404.663 265.443C407.561 246.545 404.052 213.135 384.446 179.176C364.839 145.217 339.421 129.378 302.443 108.893C265.466 88.408 224.175 75.8272 176.685 61.9041C129.194 47.981 69.386 39.2012 62.0204 37.5478Z" fill="#7359C7"/>
<path d="M107.846 109.466C97.6289 107.494 92.5027 108.814 91.2167 109.72L241.758 369.61L264.332 356.577C272.844 351.663 306.195 329.947 324.722 309.904C343.25 289.861 357.706 272.168 353.158 240.36C348.609 208.551 330.445 192.474 310.801 177.252C291.157 162.03 251.867 147.82 218.251 135.745C184.634 123.671 120.618 111.93 107.846 109.466Z" fill="#EAED69"/>
<path d="M44.6589 56.428C44.7501 44.9628 48.3951 39.0061 50.3688 37.8665L269.033 416.604C265.088 418.882 254.965 424.962 233.165 431.645C205.915 439.998 180.619 429.515 157.061 416.061C133.503 402.606 107.583 361.984 91.7645 333.731C75.946 305.478 71.4297 283.981 61.3989 243.532C51.3681 203.082 46.97 134.785 46.2319 118.978C45.4939 103.17 44.5449 70.7596 44.6589 56.428Z" fill="#2901A4"/>
<rect x="200.815" y="216.65" width="25.6393" height="33.2293" rx="12.8197" transform="rotate(-30 200.815 216.65)" fill="#2901A4"/>
<rect x="254.865" y="224.804" width="25.6393" height="33.2293" rx="12.8197" transform="rotate(-30 254.865 224.804)" fill="#2901A4"/>
</g>
<g style="mix-blend-mode:soft-light" opacity="0.6">
<rect width="1200" height="241" fill="#592FDC"/>
</g>
</g>
<defs>
<filter id="filter0_f_1_40" x="805.755" y="-301.116" width="678.786" height="690.171" filterUnits="userSpaceOnUse" color-interpolation-filters="sRGB">
<feFlood flood-opacity="0" result="BackgroundImageFix"/>
<feBlend mode="normal" in="SourceGraphic" in2="BackgroundImageFix" result="shape"/>
<feGaussianBlur stdDeviation="68" result="effect1_foregroundBlur_1_40"/>
</filter>
<filter id="filter1_f_1_40" x="-36.6924" y="-188.725" width="741.846" height="751.329" filterUnits="userSpaceOnUse" color-interpolation-filters="sRGB">
<feFlood flood-opacity="0" result="BackgroundImageFix"/>
<feBlend mode="normal" in="SourceGraphic" in2="BackgroundImageFix" result="shape"/>
<feGaussianBlur stdDeviation="80" result="effect1_foregroundBlur_1_40"/>
</filter>
<filter id="filter2_d_1_40" x="-76.2896" y="-83.1903" width="661.845" height="671.329" filterUnits="userSpaceOnUse" color-interpolation-filters="sRGB">
<feFlood flood-opacity="0" result="BackgroundImageFix"/>
<feColorMatrix in="SourceAlpha" type="matrix" values="0 0 0 0 0 0 0 0 0 0 0 0 0 0 0 0 0 0 127 0" result="hardAlpha"/>
<feOffset dx="60"/>
<feGaussianBlur stdDeviation="60"/>
<feComposite in2="hardAlpha" operator="out"/>
<feColorMatrix type="matrix" values="0 0 0 0 0.918791 0 0 0 0 0.929167 0 0 0 0 0.410382 0 0 0 1 0"/>
<feBlend mode="normal" in2="BackgroundImageFix" result="effect1_dropShadow_1_40"/>
<feBlend mode="normal" in="SourceGraphic" in2="effect1_dropShadow_1_40" result="shape"/>
</filter>
<clipPath id="clip0_1_40">
<rect width="1200" height="241" rx="16" fill="white"/>
</clipPath>
</defs>
</svg>
