<svg width="104" height="104" viewBox="0 0 104 104" fill="none" xmlns="http://www.w3.org/2000/svg">
<rect width="104" height="104" rx="16" fill="#2901A4"/>
<path opacity="0.4" d="M59 77.0833C58.37 77.0833 57.7867 76.7333 57.4834 76.1967C57.18 75.66 57.18 74.9833 57.5067 74.4467L59.9567 70.3633C60.4467 69.5233 61.52 69.2666 62.36 69.7566C63.2 70.2466 63.4567 71.32 62.9667 72.16L62.3367 73.2101C68.7767 71.6934 73.6067 65.9067 73.6067 59C73.6067 58.0433 74.4 57.25 75.3567 57.25C76.3133 57.25 77.1067 58.0433 77.1067 59C77.0833 68.9633 68.9633 77.0833 59 77.0833Z" fill="white"/>
<path opacity="0.4" d="M28.6667 46.75C27.71 46.75 26.9167 45.9566 26.9167 45C26.9167 35.0366 35.0367 26.9166 45 26.9166C45.63 26.9166 46.2133 27.2666 46.5166 27.8033C46.82 28.34 46.82 29.0166 46.4933 29.5533L44.0433 33.6366C43.5533 34.4766 42.48 34.7333 41.64 34.2433C40.8 33.7533 40.5433 32.6799 41.0333 31.8399L41.6633 30.7899C35.2233 32.3066 30.3933 38.0933 30.3933 45C30.4167 45.9566 29.6233 46.75 28.6667 46.75Z" fill="white"/>
<path d="M48.8967 56.3166L41.57 52.3732C40.8 51.9532 39.8667 51.9532 39.0967 52.3732L31.77 56.3166C31.2333 56.5966 30.9067 57.1799 30.9067 57.8099C30.9067 58.4399 31.2333 59.0233 31.77 59.3033L39.0967 63.2466C39.4933 63.4566 39.9133 63.55 40.3333 63.55C40.7533 63.55 41.1733 63.4566 41.57 63.2466L48.8967 59.3033C49.4333 59.0233 49.76 58.4399 49.76 57.8099C49.76 57.1799 49.41 56.6199 48.8967 56.3166Z" fill="white"/>
<path d="M37.8833 64.6232L31.07 61.2167C30.5567 60.96 29.95 60.9832 29.4367 61.2866C28.9467 61.5899 28.6433 62.1267 28.6433 62.71V69.1499C28.6433 70.2699 29.25 71.2732 30.2533 71.7632L37.0667 75.1699C37.3 75.2866 37.5567 75.3566 37.8133 75.3566C38.1167 75.3566 38.42 75.2633 38.7 75.1C39.19 74.7967 39.4933 74.2599 39.4933 73.6766V67.2367C39.5167 66.1167 38.8867 65.1132 37.8833 64.6232Z" fill="white"/>
<path d="M51.2067 61.2866C50.7167 60.9832 50.11 60.96 49.5733 61.2167L42.76 64.6232C41.7566 65.1132 41.15 66.1167 41.15 67.2367V73.6766C41.15 74.2599 41.4533 74.7967 41.9433 75.1C42.2233 75.2633 42.5267 75.3566 42.83 75.3566C43.0867 75.3566 43.3433 75.2866 43.5767 75.1699L50.39 71.7632C51.3933 71.2732 52 70.2699 52 69.1499V62.71C52 62.1267 51.6967 61.5899 51.2067 61.2866Z" fill="white"/>
<path d="M72.23 32.9367L64.9033 28.9933C64.1333 28.5733 63.2 28.5733 62.43 28.9933L55.1033 32.9367C54.5667 33.2167 54.24 33.7999 54.24 34.4299C54.24 35.0599 54.5667 35.6433 55.1033 35.9233L62.43 39.8666C62.8267 40.0766 63.2467 40.17 63.6667 40.17C64.0867 40.17 64.5067 40.0766 64.9033 39.8666L72.23 35.9233C72.7667 35.6433 73.0933 35.0599 73.0933 34.4299C73.0933 33.7766 72.7433 33.2167 72.23 32.9367Z" fill="white"/>
<path d="M61.2167 41.22L54.4033 37.8133C53.89 37.5566 53.2833 37.58 52.77 37.8833C52.28 38.1867 51.9767 38.7233 51.9767 39.3066V45.7467C51.9767 46.8667 52.5833 47.87 53.5867 48.36L60.4 51.7667C60.6334 51.8834 60.89 51.9533 61.1467 51.9533C61.45 51.9533 61.7533 51.86 62.0333 51.6966C62.5233 51.3933 62.8267 50.8567 62.8267 50.2733V43.8333C62.85 42.7133 62.22 41.71 61.2167 41.22Z" fill="white"/>
<path d="M74.54 37.8833C74.05 37.58 73.4434 37.5566 72.9067 37.8133L66.0933 41.22C65.09 41.71 64.4834 42.7133 64.4834 43.8333V50.2733C64.4834 50.8567 64.7867 51.3933 65.2767 51.6966C65.5567 51.86 65.86 51.9533 66.1634 51.9533C66.42 51.9533 66.6767 51.8834 66.91 51.7667L73.7233 48.36C74.7267 47.87 75.3333 46.8667 75.3333 45.7467V39.3066C75.3333 38.7233 75.03 38.1867 74.54 37.8833Z" fill="white"/>
</svg>
