<svg width="192" height="48" viewBox="0 0 192 48" fill="none" xmlns="http://www.w3.org/2000/svg">
<path d="M5.9761 44.0936C10.8164 47.3106 18.8428 48.0213 22.251 47.9746L24 48V0C23.9531 9.79079e-06 23.9395 0.000488281 23.705 0.0472467C23.4066 0.106733 20.4218 2.24489 14.8405 7.57535C9.25923 12.9058 6.30442 17.1141 2.9744 21.8834C0.310379 25.6989 -0.105485 30.674 0.019586 32.6846C-0.0116818 35.1472 1.13585 40.8767 5.9761 44.0936Z" fill="#3E00FF"/>
<path d="M25.125 0.609119C24.6375 0.160018 24.1875 -0.0146409 24 0.000952872V47.9986C24.1875 48.0142 25.0219 47.8957 27.0469 47.8583C29.5781 47.8115 32.1562 47.6243 36.5625 46.5484C40.9688 45.4724 43.875 42.7123 45.1875 41.075C46.5 39.4376 48 36.0694 48 31.7655C48 27.4616 46.4531 24.5611 44.0625 20.5847C41.6719 16.6083 38.4375 13.1465 34.6875 9.21688C30.9375 5.28725 25.7344 1.1705 25.125 0.609119Z" fill="#7359C7"/>
<path d="M25.5341 9.95999C24.6711 9.21186 24.1114 9.056 23.9395 9.07158L23.9864 42.0362H26.8474C27.9261 42.0362 32.288 41.8025 35.149 40.914C38.01 40.0256 40.355 39.1372 41.6683 35.8641C42.9815 32.5911 42.1373 30.0661 41.1055 27.5411C40.0736 25.0162 37.1188 21.5093 34.5861 18.5168C32.0534 15.5242 26.6129 10.8952 25.5341 9.95999Z" fill="#EAED69"/>
<path d="M22.4386 1.45096C23.0765 0.366169 23.7499 0 24 0V48C23.5 48 22.2041 48.0223 19.7652 47.4612C16.7166 46.7598 14.8875 44.3752 13.3866 41.8035C11.8857 39.2317 11.6512 33.948 11.6981 30.3944C11.745 26.8408 12.4955 24.5496 13.7618 20.1543C15.0282 15.759 18.3582 9.02582 19.1555 7.4828C19.9528 5.93977 21.6413 2.80696 22.4386 1.45096Z" fill="#2901A4"/>
<rect x="28.4889" y="25.25" width="2.8141" height="3.64715" rx="1.40705" fill="#2901A4"/>
<rect x="33.1791" y="28.9912" width="2.8141" height="3.64715" rx="1.40705" fill="#2901A4"/>
<rect x="28.4889" y="31.7964" width="2.8141" height="3.64715" rx="1.40705" fill="#2901A4"/>
<path d="M62.184 32V18.512C62.184 17.024 62.592 15.928 63.408 15.224C64.24 14.504 65.464 14.144 67.08 14.144H68.424V16.712H66.84C66.344 16.712 65.96 16.848 65.688 17.12C65.432 17.376 65.304 17.744 65.304 18.224V32H62.184ZM60.576 21.488V19.04H68.304V21.488H60.576ZM71.088 32V18.968H74.424V32H71.088ZM69.432 21.464V18.968H74.424V21.464H69.432ZM72.288 17.408C71.648 17.408 71.168 17.24 70.848 16.904C70.544 16.552 70.392 16.12 70.392 15.608C70.392 15.064 70.544 14.624 70.848 14.288C71.168 13.952 71.648 13.784 72.288 13.784C72.944 13.784 73.424 13.952 73.728 14.288C74.048 14.624 74.208 15.064 74.208 15.608C74.208 16.12 74.048 16.552 73.728 16.904C73.424 17.24 72.944 17.408 72.288 17.408ZM83.3434 37.136C82.7194 37.136 82.0794 37.112 81.4234 37.064C80.7834 37.016 80.1834 36.952 79.6234 36.872V34.088C80.1994 34.152 80.8154 34.208 81.4714 34.256C82.1274 34.32 82.7434 34.352 83.3194 34.352C84.3914 34.352 85.2554 34.224 85.9114 33.968C86.5834 33.712 87.0714 33.304 87.3754 32.744C87.6954 32.2 87.8554 31.504 87.8554 30.656V28.088L88.5754 26.456C88.5274 27.656 88.2794 28.68 87.8314 29.528C87.3834 30.36 86.7754 31 86.0074 31.448C85.2394 31.88 84.3514 32.096 83.3434 32.096C82.4474 32.096 81.6314 31.928 80.8954 31.592C80.1754 31.256 79.5514 30.792 79.0234 30.2C78.5114 29.608 78.1114 28.912 77.8234 28.112C77.5354 27.312 77.3914 26.456 77.3914 25.544V25.04C77.3914 24.128 77.5354 23.28 77.8234 22.496C78.1274 21.696 78.5514 21 79.0954 20.408C79.6394 19.816 80.2874 19.36 81.0394 19.04C81.7914 18.72 82.6234 18.56 83.5354 18.56C84.6074 18.56 85.5354 18.792 86.3194 19.256C87.1194 19.72 87.7434 20.392 88.1914 21.272C88.6394 22.152 88.8874 23.232 88.9354 24.512L88.3594 24.608V18.968H90.9994V30.464C90.9994 32.048 90.7274 33.328 90.1834 34.304C89.6394 35.28 88.7994 35.992 87.6634 36.44C86.5434 36.904 85.1034 37.136 83.3434 37.136ZM84.3034 29.24C84.9434 29.24 85.5274 29.096 86.0554 28.808C86.5834 28.52 87.0074 28.104 87.3274 27.56C87.6474 27.016 87.8074 26.36 87.8074 25.592V24.752C87.8074 24.016 87.6394 23.392 87.3034 22.88C86.9834 22.368 86.5594 21.984 86.0314 21.728C85.5034 21.456 84.9274 21.32 84.3034 21.32C83.5994 21.32 82.9754 21.488 82.4314 21.824C81.9034 22.144 81.4874 22.6 81.1834 23.192C80.8794 23.784 80.7274 24.488 80.7274 25.304C80.7274 26.104 80.8794 26.8 81.1834 27.392C81.4874 27.984 81.9034 28.44 82.4314 28.76C82.9754 29.08 83.5994 29.24 84.3034 29.24ZM102.534 32V28.136H101.982V23.84C101.982 23.088 101.798 22.528 101.43 22.16C101.062 21.792 100.494 21.608 99.7262 21.608C99.3262 21.608 98.8462 21.616 98.2862 21.632C97.7262 21.648 97.1582 21.672 96.5822 21.704C96.0222 21.72 95.5182 21.744 95.0702 21.776V18.944C95.4382 18.912 95.8542 18.88 96.3182 18.848C96.7822 18.816 97.2542 18.8 97.7342 18.8C98.2302 18.784 98.6942 18.776 99.1262 18.776C100.47 18.776 101.582 18.952 102.462 19.304C103.358 19.656 104.03 20.208 104.478 20.96C104.942 21.712 105.174 22.696 105.174 23.912V32H102.534ZM98.3342 32.336C97.3902 32.336 96.5582 32.168 95.8382 31.832C95.1342 31.496 94.5822 31.016 94.1822 30.392C93.7982 29.768 93.6062 29.016 93.6062 28.136C93.6062 27.176 93.8382 26.392 94.3022 25.784C94.7822 25.176 95.4462 24.72 96.2942 24.416C97.1582 24.112 98.1662 23.96 99.3182 23.96H102.342V25.952H99.2702C98.5022 25.952 97.9102 26.144 97.4942 26.528C97.0942 26.896 96.8942 27.376 96.8942 27.968C96.8942 28.56 97.0942 29.04 97.4942 29.408C97.9102 29.776 98.5022 29.96 99.2702 29.96C99.7342 29.96 100.158 29.88 100.542 29.72C100.942 29.544 101.27 29.256 101.526 28.856C101.798 28.44 101.95 27.88 101.982 27.176L102.798 28.112C102.718 29.024 102.494 29.792 102.126 30.416C101.774 31.04 101.278 31.52 100.638 31.856C100.014 32.176 99.2462 32.336 98.3342 32.336ZM118.655 32.408C116.863 32.408 115.455 32.032 114.431 31.28C113.423 30.512 112.895 29.456 112.847 28.112H115.847C115.895 28.56 116.143 28.968 116.591 29.336C117.039 29.704 117.743 29.888 118.703 29.888C119.503 29.888 120.135 29.744 120.599 29.456C121.079 29.168 121.319 28.776 121.319 28.28C121.319 27.848 121.135 27.504 120.767 27.248C120.415 26.992 119.807 26.824 118.943 26.744L117.791 26.624C116.335 26.464 115.215 26.048 114.431 25.376C113.647 24.704 113.255 23.808 113.255 22.688C113.255 21.792 113.479 21.04 113.927 20.432C114.375 19.824 114.991 19.368 115.775 19.064C116.575 18.744 117.487 18.584 118.511 18.584C120.111 18.584 121.407 18.936 122.399 19.64C123.391 20.344 123.911 21.376 123.959 22.736H120.959C120.927 22.288 120.703 21.904 120.287 21.584C119.871 21.264 119.271 21.104 118.487 21.104C117.783 21.104 117.239 21.24 116.855 21.512C116.471 21.784 116.279 22.136 116.279 22.568C116.279 22.984 116.431 23.304 116.735 23.528C117.055 23.752 117.567 23.904 118.271 23.984L119.423 24.104C120.959 24.264 122.159 24.688 123.023 25.376C123.903 26.064 124.343 26.992 124.343 28.16C124.343 29.024 124.103 29.776 123.623 30.416C123.159 31.04 122.503 31.528 121.655 31.88C120.807 32.232 119.807 32.408 118.655 32.408ZM132.763 32.168C131.563 32.168 130.571 32.016 129.787 31.712C129.019 31.392 128.443 30.864 128.059 30.128C127.675 29.376 127.483 28.368 127.483 27.104L127.507 15.296H130.627L130.603 27.32C130.603 27.96 130.771 28.456 131.107 28.808C131.459 29.144 131.955 29.312 132.595 29.312H134.635V32.168H132.763ZM125.419 21.416V18.968H134.635V21.416H125.419ZM141.875 32.408C140.371 32.408 139.203 31.912 138.371 30.92C137.555 29.928 137.147 28.456 137.147 26.504V18.944H140.483V26.792C140.483 27.592 140.707 28.232 141.155 28.712C141.603 29.176 142.211 29.408 142.979 29.408C143.747 29.408 144.371 29.16 144.851 28.664C145.347 28.168 145.595 27.496 145.595 26.648V18.944H148.931V32H146.291V26.456H146.555C146.555 27.768 146.387 28.864 146.051 29.744C145.715 30.624 145.211 31.288 144.539 31.736C143.867 32.184 143.027 32.408 142.019 32.408H141.875ZM158.163 32.432C157.251 32.432 156.411 32.264 155.643 31.928C154.875 31.592 154.211 31.12 153.651 30.512C153.091 29.904 152.659 29.2 152.355 28.4C152.051 27.584 151.899 26.704 151.899 25.76V25.256C151.899 24.328 152.043 23.456 152.331 22.64C152.635 21.824 153.051 21.112 153.579 20.504C154.123 19.896 154.771 19.424 155.523 19.088C156.291 18.736 157.139 18.56 158.067 18.56C159.091 18.56 159.987 18.784 160.755 19.232C161.539 19.664 162.163 20.32 162.627 21.2C163.091 22.08 163.347 23.184 163.395 24.512L162.411 23.36V14.48H165.747V32H163.107V26.456H163.683C163.635 27.784 163.363 28.896 162.867 29.792C162.371 30.672 161.715 31.336 160.899 31.784C160.099 32.216 159.187 32.432 158.163 32.432ZM158.907 29.624C159.563 29.624 160.163 29.48 160.707 29.192C161.251 28.888 161.683 28.456 162.003 27.896C162.339 27.32 162.507 26.648 162.507 25.88V24.92C162.507 24.152 162.339 23.512 162.003 23C161.667 22.472 161.227 22.072 160.683 21.8C160.139 21.512 159.547 21.368 158.907 21.368C158.187 21.368 157.547 21.544 156.987 21.896C156.443 22.232 156.011 22.712 155.691 23.336C155.387 23.96 155.235 24.688 155.235 25.52C155.235 26.352 155.395 27.08 155.715 27.704C156.035 28.312 156.467 28.784 157.011 29.12C157.571 29.456 158.203 29.624 158.907 29.624ZM170.168 32V18.968H173.504V32H170.168ZM168.344 21.464V18.968H173.504V21.464H168.344ZM171.392 17.408C170.736 17.408 170.248 17.24 169.928 16.904C169.624 16.552 169.472 16.12 169.472 15.608C169.472 15.064 169.624 14.624 169.928 14.288C170.248 13.952 170.736 13.784 171.392 13.784C172.048 13.784 172.528 13.952 172.832 14.288C173.136 14.624 173.288 15.064 173.288 15.608C173.288 16.12 173.136 16.552 172.832 16.904C172.528 17.24 172.048 17.408 171.392 17.408ZM183.613 32.456C182.461 32.456 181.445 32.272 180.565 31.904C179.685 31.536 178.941 31.04 178.333 30.416C177.725 29.776 177.261 29.056 176.941 28.256C176.637 27.456 176.485 26.624 176.485 25.76V25.256C176.485 24.36 176.645 23.512 176.965 22.712C177.301 21.896 177.773 21.176 178.381 20.552C179.005 19.912 179.757 19.416 180.637 19.064C181.517 18.696 182.509 18.512 183.613 18.512C184.717 18.512 185.709 18.696 186.589 19.064C187.469 19.416 188.213 19.912 188.821 20.552C189.445 21.176 189.917 21.896 190.237 22.712C190.557 23.512 190.717 24.36 190.717 25.256V25.76C190.717 26.624 190.557 27.456 190.237 28.256C189.933 29.056 189.477 29.776 188.869 30.416C188.261 31.04 187.517 31.536 186.637 31.904C185.757 32.272 184.749 32.456 183.613 32.456ZM183.613 29.6C184.429 29.6 185.117 29.424 185.677 29.072C186.237 28.704 186.661 28.216 186.949 27.608C187.237 26.984 187.381 26.28 187.381 25.496C187.381 24.696 187.229 23.992 186.925 23.384C186.637 22.76 186.205 22.272 185.629 21.92C185.069 21.552 184.397 21.368 183.613 21.368C182.829 21.368 182.149 21.552 181.573 21.92C181.013 22.272 180.581 22.76 180.277 23.384C179.973 23.992 179.821 24.696 179.821 25.496C179.821 26.28 179.965 26.984 180.253 27.608C180.557 28.216 180.989 28.704 181.549 29.072C182.109 29.424 182.797 29.6 183.613 29.6Z" fill="url(#paint0_linear_1_208)"/>
<defs>
<linearGradient id="paint0_linear_1_208" x1="51.9813" y1="15.9999" x2="178.751" y2="40.0597" gradientUnits="userSpaceOnUse">
<stop stop-color="white"/>
<stop offset="1" stop-color="white" stop-opacity="0.7"/>
</linearGradient>
</defs>
</svg>
