<svg width="167" height="48" viewBox="0 0 167 48" fill="none" xmlns="http://www.w3.org/2000/svg">
<path d="M5.9761 44.0936C10.8164 47.3106 18.8428 48.0213 22.251 47.9746L24 48V0C23.9531 9.79079e-06 23.9395 0.000488281 23.705 0.0472467C23.4066 0.106733 20.4218 2.24489 14.8405 7.57535C9.25923 12.9058 6.30442 17.1141 2.9744 21.8834C0.310379 25.6989 -0.105485 30.674 0.019586 32.6846C-0.0116818 35.1472 1.13585 40.8767 5.9761 44.0936Z" fill="#3E00FF"/>
<path d="M25.125 0.609119C24.6375 0.160018 24.1875 -0.0146409 24 0.000952872V47.9986C24.1875 48.0142 25.0219 47.8957 27.0469 47.8583C29.5781 47.8115 32.1562 47.6243 36.5625 46.5484C40.9688 45.4724 43.875 42.7123 45.1875 41.075C46.5 39.4376 48 36.0694 48 31.7655C48 27.4616 46.4531 24.5611 44.0625 20.5847C41.6719 16.6083 38.4375 13.1465 34.6875 9.21688C30.9375 5.28725 25.7344 1.1705 25.125 0.609119Z" fill="#7359C7"/>
<path d="M25.5341 9.96005C24.6711 9.21192 24.1114 9.05606 23.9395 9.07164L23.9864 42.0363H26.8474C27.9261 42.0363 32.288 41.8025 35.149 40.9141C38.01 40.0257 40.355 39.1373 41.6683 35.8642C42.9815 32.5911 42.1373 30.0662 41.1055 27.5412C40.0736 25.0163 37.1188 21.5094 34.5861 18.5168C32.0534 15.5243 26.6129 10.8952 25.5341 9.96005Z" fill="#EAED69"/>
<path d="M22.4386 1.45096C23.0765 0.366169 23.7499 0 24 0V48C23.5 48 22.2041 48.0223 19.7652 47.4612C16.7166 46.7598 14.8875 44.3752 13.3866 41.8035C11.8857 39.2317 11.6512 33.948 11.6981 30.3944C11.745 26.8408 12.4955 24.5496 13.7618 20.1543C15.0282 15.759 18.3582 9.02582 19.1555 7.4828C19.9528 5.93977 21.6413 2.80696 22.4386 1.45096Z" fill="#2901A4"/>
<rect x="28.4889" y="25.2501" width="2.8141" height="3.64715" rx="1.40705" fill="#2901A4"/>
<rect x="33.1791" y="28.9913" width="2.8141" height="3.64715" rx="1.40705" fill="#2901A4"/>
<rect x="28.4889" y="31.7965" width="2.8141" height="3.64715" rx="1.40705" fill="#2901A4"/>
<path d="M62.52 32.0001V18.9681H65.856V32.0001H62.52ZM60.696 21.4641V18.9681H65.856V21.4641H60.696ZM63.744 17.4081C63.088 17.4081 62.6 17.2401 62.28 16.9041C61.976 16.5521 61.824 16.1201 61.824 15.6081C61.824 15.0641 61.976 14.6241 62.28 14.2881C62.6 13.9521 63.088 13.7841 63.744 13.7841C64.4 13.7841 64.88 13.9521 65.184 14.2881C65.488 14.6241 65.64 15.0641 65.64 15.6081C65.64 16.1201 65.488 16.5521 65.184 16.9041C64.88 17.2401 64.4 17.4081 63.744 17.4081ZM69.7007 32.0001V18.9681H72.3407V24.5601H72.1007C72.1007 23.2321 72.2767 22.1281 72.6287 21.2481C72.9807 20.3521 73.5007 19.6801 74.1887 19.2321C74.8927 18.7841 75.7647 18.5601 76.8047 18.5601H76.9487C78.5007 18.5601 79.6767 19.0641 80.4767 20.0721C81.2767 21.0641 81.6767 22.5521 81.6767 24.5361V32.0001H78.3407V24.2481C78.3407 23.4481 78.1087 22.8001 77.6447 22.3041C77.1967 21.8081 76.5727 21.5601 75.7727 21.5601C74.9567 21.5601 74.2927 21.8161 73.7807 22.3281C73.2847 22.8241 73.0367 23.4961 73.0367 24.3441V32.0001H69.7007ZM91.0472 32.4561C89.9112 32.4561 88.9272 32.2641 88.0952 31.8801C87.2792 31.4961 86.5912 30.9841 86.0312 30.3441C85.4872 29.7041 85.0792 28.9841 84.8072 28.1841C84.5352 27.3841 84.3992 26.5681 84.3992 25.7361V25.2801C84.3992 24.4001 84.5352 23.5601 84.8072 22.7601C85.0952 21.9441 85.5192 21.2241 86.0792 20.6001C86.6392 19.9601 87.3272 19.4561 88.1432 19.0881C88.9752 18.7041 89.9352 18.5121 91.0232 18.5121C92.1592 18.5121 93.1752 18.7361 94.0712 19.1841C94.9672 19.6161 95.6792 20.2241 96.2072 21.0081C96.7512 21.7921 97.0552 22.7041 97.1192 23.7441H93.8792C93.7992 23.0721 93.5112 22.5121 93.0152 22.0641C92.5352 21.6161 91.8712 21.3921 91.0232 21.3921C90.2872 21.3921 89.6712 21.5681 89.1752 21.9201C88.6952 22.2721 88.3352 22.7601 88.0952 23.3841C87.8552 23.9921 87.7352 24.6961 87.7352 25.4961C87.7352 26.2641 87.8472 26.9601 88.0712 27.5841C88.3112 28.2081 88.6712 28.6961 89.1512 29.0481C89.6472 29.4001 90.2792 29.5761 91.0472 29.5761C91.6232 29.5761 92.1192 29.4721 92.5352 29.2641C92.9512 29.0561 93.2792 28.7681 93.5192 28.4001C93.7752 28.0321 93.9352 27.6161 93.9992 27.1521H97.2392C97.1752 28.2081 96.8632 29.1361 96.3032 29.9361C95.7592 30.7201 95.0312 31.3361 94.1192 31.7841C93.2232 32.2321 92.1992 32.4561 91.0472 32.4561ZM100.536 32.0001V18.9681H103.872V32.0001H100.536ZM98.7116 21.4641V18.9681H103.872V21.4641H98.7116ZM101.76 17.4081C101.104 17.4081 100.616 17.2401 100.296 16.9041C99.9916 16.5521 99.8396 16.1201 99.8396 15.6081C99.8396 15.0641 99.9916 14.6241 100.296 14.2881C100.616 13.9521 101.104 13.7841 101.76 13.7841C102.416 13.7841 102.896 13.9521 103.2 14.2881C103.504 14.6241 103.656 15.0641 103.656 15.6081C103.656 16.1201 103.504 16.5521 103.2 16.9041C102.896 17.2401 102.416 17.4081 101.76 17.4081ZM107.716 32.0001V18.9681H110.356V24.4881H110.284C110.284 22.6161 110.684 21.2001 111.484 20.2401C112.284 19.2801 113.46 18.8001 115.012 18.8001H115.492V21.7041H114.58C113.46 21.7041 112.588 22.0081 111.964 22.6161C111.356 23.2081 111.052 24.0721 111.052 25.2081V32.0001H107.716ZM115.766 32.0001V28.1601H119.51V32.0001H115.766ZM127.859 32.4321C126.947 32.4321 126.107 32.2641 125.339 31.9281C124.571 31.5921 123.907 31.1201 123.347 30.5121C122.787 29.9041 122.355 29.2001 122.051 28.4001C121.747 27.5841 121.595 26.7041 121.595 25.7601V25.2561C121.595 24.3281 121.739 23.4561 122.027 22.6401C122.331 21.8241 122.747 21.1121 123.275 20.5041C123.819 19.8961 124.467 19.4241 125.219 19.0881C125.987 18.7361 126.835 18.5601 127.763 18.5601C128.787 18.5601 129.683 18.7841 130.451 19.2321C131.235 19.6641 131.859 20.3201 132.323 21.2001C132.787 22.0801 133.043 23.1841 133.091 24.5121L132.107 23.3601V14.4801H135.443V32.0001H132.803V26.4561H133.379C133.331 27.7841 133.059 28.8961 132.562 29.7921C132.067 30.6721 131.411 31.3361 130.595 31.7841C129.795 32.2161 128.883 32.4321 127.859 32.4321ZM128.603 29.6241C129.259 29.6241 129.859 29.4801 130.403 29.1921C130.947 28.8881 131.379 28.4561 131.699 27.8961C132.035 27.3201 132.203 26.6481 132.203 25.8801V24.9201C132.203 24.1521 132.035 23.5121 131.699 23.0001C131.363 22.4721 130.923 22.0721 130.379 21.8001C129.835 21.5121 129.243 21.3681 128.603 21.3681C127.883 21.3681 127.243 21.5441 126.683 21.8961C126.139 22.2321 125.707 22.7121 125.387 23.3361C125.083 23.9601 124.931 24.6881 124.931 25.5201C124.931 26.3521 125.091 27.0801 125.411 27.7041C125.731 28.3121 126.163 28.7841 126.707 29.1201C127.267 29.4561 127.899 29.6241 128.603 29.6241ZM145.072 32.4561C143.952 32.4561 142.968 32.2641 142.12 31.8801C141.288 31.4961 140.592 30.9841 140.032 30.3441C139.488 29.6881 139.072 28.9601 138.784 28.1601C138.512 27.3601 138.376 26.5441 138.376 25.7121V25.2561C138.376 24.3921 138.512 23.5601 138.784 22.7601C139.072 21.9441 139.488 21.2241 140.032 20.6001C140.592 19.9601 141.28 19.4561 142.096 19.0881C142.912 18.7041 143.856 18.5121 144.928 18.5121C146.336 18.5121 147.512 18.8241 148.456 19.4481C149.416 20.0561 150.136 20.8641 150.616 21.8721C151.096 22.8641 151.336 23.9361 151.336 25.0881V26.2881H139.792V24.2481H149.248L148.216 25.2561C148.216 24.4241 148.096 23.7121 147.856 23.1201C147.616 22.5281 147.248 22.0721 146.752 21.7521C146.272 21.4321 145.664 21.2721 144.928 21.2721C144.192 21.2721 143.568 21.4401 143.056 21.7761C142.544 22.1121 142.152 22.6001 141.88 23.2401C141.624 23.8641 141.496 24.6161 141.496 25.4961C141.496 26.3121 141.624 27.0401 141.88 27.6801C142.136 28.3041 142.528 28.8001 143.056 29.1681C143.584 29.5201 144.256 29.6961 145.072 29.6961C145.888 29.6961 146.552 29.5361 147.064 29.2161C147.576 28.8801 147.904 28.4721 148.048 27.9921H151.12C150.928 28.8881 150.56 29.6721 150.016 30.3441C149.472 31.0161 148.776 31.5361 147.928 31.9041C147.096 32.2721 146.144 32.4561 145.072 32.4561ZM156.621 32.0001L152.541 18.9681H155.973L159.885 32.0001H156.621ZM157.605 32.0001V29.2641H161.133V32.0001H157.605ZM158.925 32.0001L162.285 18.9681H165.501L161.973 32.0001H158.925Z" fill="white"/>
</svg>
