<svg width="24" height="24" viewBox="0 0 24 24" fill="none" xmlns="http://www.w3.org/2000/svg">
<path d="M2.98805 22.0468C5.40818 23.6553 9.4214 24.0107 11.1255 23.9873L12 24V0C11.9765 4.8954e-06 11.9697 0.000244141 11.8525 0.0236233C11.7033 0.0533666 10.2109 1.12245 7.42026 3.78767C4.62961 6.4529 3.15221 8.55703 1.4872 10.9417C0.155189 12.8494 -0.0527423 15.337 0.00979298 16.3423C-0.00584092 17.5736 0.567923 20.4383 2.98805 22.0468Z" fill="#3E00FF"/>
<path d="M12.5625 0.30456C12.3188 0.0800092 12.0938 -0.00732045 12 0.000476436V23.9993C12.0938 24.0071 12.5109 23.9478 13.5234 23.9291C14.7891 23.9057 16.0781 23.8122 18.2812 23.2742C20.4844 22.7362 21.9375 21.3562 22.5938 20.5375C23.25 19.7188 24 18.0347 24 15.8827C24 13.7308 23.2266 12.2806 22.0312 10.2924C20.8359 8.30416 19.2188 6.57326 17.3438 4.60844C15.4688 2.64362 12.8672 0.585248 12.5625 0.30456Z" fill="#7359C7"/>
<path d="M12.7671 4.97987C12.3356 4.60581 12.0557 4.52788 11.9697 4.53567L11.9932 21.018H13.4237C13.963 21.018 16.144 20.9011 17.5745 20.4569C19.005 20.0127 20.1775 19.5685 20.8341 17.9319C21.4908 16.2954 21.0687 15.0329 20.5527 13.7705C20.0368 12.508 18.5594 10.7545 17.2931 9.25827C16.0267 7.762 13.3064 5.44746 12.7671 4.97987Z" fill="#EAED69"/>
<path d="M11.2193 0.725482C11.5382 0.183085 11.8749 0 12 0V24C11.75 24 11.1021 24.0112 9.88262 23.7306C8.35831 23.3799 7.44373 22.1876 6.6933 20.9017C5.94287 19.6159 5.82562 16.974 5.84907 15.1972C5.87252 13.4204 6.24773 12.2748 6.88091 10.0772C7.51408 7.87952 9.17909 4.51291 9.57775 3.7414C9.97642 2.96988 10.8207 1.40348 11.2193 0.725482Z" fill="#2901A4"/>
<rect x="14.2444" y="12.625" width="1.40705" height="1.82358" rx="0.703525" fill="#2901A4"/>
<rect x="16.5895" y="14.4956" width="1.40705" height="1.82358" rx="0.703525" fill="#2901A4"/>
<rect x="14.2444" y="15.8982" width="1.40705" height="1.82358" rx="0.703525" fill="#2901A4"/>
</svg>
