<svg width="104" height="104" viewBox="0 0 104 104" fill="none" xmlns="http://www.w3.org/2000/svg">
<rect width="104" height="104" rx="16" fill="#1C1C1C"/>
<path d="M59.9101 36.1566L63.2 42.7366C63.6433 43.6466 64.8333 44.51 65.8367 44.6966L71.7867 45.6766C75.59 46.3066 76.4767 49.06 73.7467 51.8133L69.1033 56.4566C68.3333 57.2266 67.8901 58.7433 68.1467 59.84L69.4767 65.58C70.5267 70.1066 68.1 71.88 64.11 69.5L58.5333 66.1866C57.53 65.58 55.85 65.58 54.8467 66.1866L49.27 69.5C45.28 71.8566 42.8534 70.1066 43.9034 65.58L45.2334 59.84C45.49 58.7666 45.0467 57.25 44.2767 56.4566L39.6334 51.8133C36.9034 49.0833 37.79 46.33 41.5934 45.6766L47.5433 44.6966C48.5467 44.5333 49.7367 43.6466 50.18 42.7366L53.47 36.1566C55.22 32.5866 58.1134 32.5866 59.9101 36.1566Z" fill="white"/>
<path opacity="0.4" d="M42.6667 37.4166H28.6667C27.71 37.4166 26.9167 36.6233 26.9167 35.6666C26.9167 34.71 27.71 33.9166 28.6667 33.9166H42.6667C43.6233 33.9166 44.4167 34.71 44.4167 35.6666C44.4167 36.6233 43.6233 37.4166 42.6667 37.4166Z" fill="white"/>
<path opacity="0.4" d="M35.6667 70.0834H28.6667C27.71 70.0834 26.9167 69.29 26.9167 68.3334C26.9167 67.3767 27.71 66.5834 28.6667 66.5834H35.6667C36.6233 66.5834 37.4167 67.3767 37.4167 68.3334C37.4167 69.29 36.6233 70.0834 35.6667 70.0834Z" fill="white"/>
<path opacity="0.4" d="M31 53.75H28.6667C27.71 53.75 26.9167 52.9567 26.9167 52C26.9167 51.0433 27.71 50.25 28.6667 50.25H31C31.9567 50.25 32.75 51.0433 32.75 52C32.75 52.9567 31.9567 53.75 31 53.75Z" fill="white"/>
</svg>
