<svg width="104" height="104" viewBox="0 0 104 104" fill="none" xmlns="http://www.w3.org/2000/svg">
<rect width="104" height="104" rx="16" fill="#1C1C1C"/>
<path opacity="0.4" d="M73.8633 50.5767V64.5533C73.8633 70.9933 68.6367 76.22 62.1967 76.22H41.8033C35.3633 76.22 30.1367 70.9933 30.1367 64.5533V50.74C31.91 52.6533 34.43 53.75 37.16 53.75C40.1 53.75 42.9233 52.28 44.6967 49.9233C46.2833 52.28 48.99 53.75 52 53.75C54.9867 53.75 57.6467 52.35 59.2567 50.0167C61.0533 52.3267 63.83 53.75 66.7233 53.75C69.5467 53.75 72.1133 52.6067 73.8633 50.5767Z" fill="white"/>
<path d="M58.9766 26.9166H44.9766L43.25 44.09C43.11 45.6766 43.3433 47.17 43.9266 48.5233C45.28 51.6966 48.4533 53.75 52 53.75C55.5933 53.75 58.6966 51.7433 60.0966 48.5466C60.5166 47.5433 60.7733 46.3766 60.7966 45.1866V44.7433L58.9766 26.9166Z" fill="white"/>
<path opacity="0.6" d="M76.1733 43.2966L75.4966 36.8333C74.5166 29.7866 71.32 26.9166 64.4833 26.9166H55.5233L57.25 44.4166C57.2733 44.65 57.2966 44.9066 57.2966 45.35C57.4366 46.5633 57.81 47.6833 58.37 48.6866C60.05 51.7666 63.3166 53.75 66.7233 53.75C69.8266 53.75 72.6266 52.3733 74.3766 49.9466C75.7766 48.08 76.4066 45.7233 76.1733 43.2966Z" fill="white"/>
<path opacity="0.6" d="M39.3766 26.9166C32.5166 26.9166 29.3433 29.7866 28.34 36.9033L27.71 43.32C27.4766 45.8166 28.1533 48.2433 29.6233 50.1333C31.3966 52.4433 34.1266 53.75 37.16 53.75C40.5666 53.75 43.8333 51.7666 45.49 48.7333C46.0966 47.6833 46.4933 46.47 46.61 45.21L48.43 26.94H39.3766V26.9166Z" fill="white"/>
<path d="M50.4834 62.8734C47.52 63.1767 45.28 65.6967 45.28 68.6834V76.22H58.6967V69.5C58.72 64.6234 55.85 62.3134 50.4834 62.8734Z" fill="white"/>
</svg>
